<?xml version="1.0" standalone="no"?>
<!DOCTYPE svg PUBLIC "-//W3C//DTD SVG 20010904//EN"
 "http://www.w3.org/TR/2001/REC-SVG-20010904/DTD/svg10.dtd">
<svg version="1.0" xmlns="http://www.w3.org/2000/svg"
 width="512.000000pt" height="512.000000pt" viewBox="0 0 512.000000 512.000000"
 preserveAspectRatio="xMidYMid meet">
<metadata>
Created by potrace 1.11, written by Peter Selinger 2001-2013
</metadata>
<g transform="translate(0.000000,512.000000) scale(0.100000,-0.100000)"
fill="#000000" stroke="none">
<path d="M1680 5103 c-125 -43 -210 -158 -214 -293 -3 -62 10 -126 33 -166 16
-31 40 -114 51 -184 5 -36 12 -76 15 -90 4 -21 -2 -29 -31 -45 -20 -11 -52
-40 -71 -65 -27 -35 -59 -58 -146 -103 -154 -80 -225 -125 -242 -150 -12 -19
-22 -52 -41 -142 -5 -24 -13 -76 -19 -130 -3 -22 -7 -56 -10 -75 -19 -146 -39
-377 -40 -472 0 -32 -2 -58 -5 -58 -3 0 -5 -155 -5 -345 0 -294 2 -347 15
-355 8 -5 20 -24 26 -42 7 -21 17 -32 28 -32 9 1 16 -1 17 -5 6 -49 61 -181
99 -236 28 -40 121 -124 138 -125 4 0 15 -7 24 -14 17 -13 21 -29 52 -241 17
-113 21 -249 30 -945 4 -278 6 -316 21 -326 12 -9 15 -19 9 -36 -13 -42 -12
-118 3 -166 8 -26 16 -56 19 -67 11 -55 100 -118 151 -109 27 5 83 40 83 52 1
4 10 18 21 31 l20 24 29 -22 c16 -12 42 -26 57 -32 28 -11 125 -13 193 -4 27
4 45 -2 85 -29 42 -28 93 -52 102 -48 2 0 17 -4 35 -9 68 -20 280 -26 643 -19
138 3 236 -3 257 -16 24 -15 126 -10 175 8 37 14 84 20 160 22 134 4 212 29
378 127 47 27 87 41 192 69 34 8 46 18 59 45 12 25 23 35 40 35 51 0 48 30
-20 185 -55 124 -74 174 -126 325 -41 119 -91 303 -105 381 -3 18 -7 35 -9 38
-2 3 -7 22 -10 41 -3 19 -8 46 -10 60 -15 79 -26 151 -31 195 -5 45 -12 82
-32 181 -3 16 -6 38 -8 49 -1 11 -4 27 -7 35 -3 8 -13 51 -23 95 -9 44 -18 87
-21 95 -2 8 -10 40 -18 70 -68 259 -140 451 -221 585 -38 64 -71 101 -112 126
-18 12 -31 25 -28 29 3 5 31 21 63 35 67 31 100 59 118 100 24 59 38 260 21
325 -18 71 -51 175 -56 180 -3 3 -15 21 -25 40 -11 19 -38 59 -60 89 -36 48
-63 70 -141 120 -24 16 -128 151 -133 174 -2 11 14 36 66 102 20 25 50 70 50
75 -1 32 33 102 65 134 120 123 120 296 -2 422 -84 86 -209 130 -347 121 -97
-6 -114 -10 -184 -44 -164 -80 -240 -249 -178 -397 14 -32 41 -75 60 -95 27
-27 42 -58 63 -126 15 -49 41 -116 58 -147 l31 -57 -28 -30 c-15 -16 -40 -31
-54 -34 -15 -3 -58 -26 -97 -51 -38 -25 -73 -42 -76 -38 -3 4 -18 68 -33 141
-35 169 -50 200 -118 239 -41 24 -133 58 -178 67 -55 11 -115 42 -129 67 -14
27 -83 73 -123 83 -15 4 -32 12 -37 19 -10 12 -8 17 39 116 31 66 60 143 60
161 0 8 9 33 19 55 99 204 -39 447 -261 459 -39 2 -80 -2 -108 -12z m964
-2042 c-12 -148 -29 -185 -98 -221 -25 -12 -54 -32 -65 -44 -17 -19 -99 -166
-102 -184 -3 -17 -28 -56 -30 -44 -1 6 -2 15 -3 20 -1 4 -5 29 -10 55 -4 27
-9 59 -12 70 -2 12 -6 36 -9 52 -3 17 -8 43 -11 58 -11 52 -11 77 -2 77 14 0
124 77 158 110 32 32 100 133 100 150 0 5 5 10 12 10 6 0 8 3 5 7 -4 3 -1 13
5 21 11 12 17 5 39 -43 16 -37 25 -72 23 -94z"/>
</g>
</svg>
